<svg xmlns="http://www.w3.org/2000/svg" width="60" height="60.823" viewBox="0 0 60 60.823">
  <g id="f1375_4" transform="translate(-377.057 50.521)">
    <g id="グループ_137" data-name="グループ 137" transform="translate(373 -53)">
      <g id="グループ_127" data-name="グループ 127" transform="translate(4.057 2.479)">
        <g id="グループ_119" data-name="グループ 119" transform="translate(4.728 4.709)">
          <path id="パス_19" data-name="パス 19" d="M20.079,8s-3.326,4.521-2.218,11.771l.853.085a16.48,16.48,0,0,1,1.876-11.6Z" transform="translate(-10.782 -8)" fill="#b43034"/>
          <path id="パス_20" data-name="パス 20" d="M9.6,18.579s4.521-3.326,11.771-2.218l.085.853a16.48,16.48,0,0,0-11.6,1.876Z" transform="translate(-9.6 -9.196)" fill="#b43034"/>
        </g>
        <g id="グループ_126" data-name="グループ 126">
          <g id="グループ_122" data-name="グループ 122" transform="translate(0.037)">
            <path id="パス_21" data-name="パス 21" d="M4.1,2.594c1.962.853,8.359,3.071,9.382,2.132s.256-1.706-.426-1.621.341.6,0,.853-1.194.085-.682-.768,1.535-.853,2.218.085a.966.966,0,0,1,1.279,1.365c-.512-.085-.426-.682-1.194.256s-3.582,9.468,1.45,15.779c5.288,6.738,12.879,6.568,18.082,1.535C39.241,17.35,37.706,7.883,30.2,7.03s-9.809,6.738-7.591,9.979c3.668,5.459,9.894,1.876,9.041-2.218-.171-.768-1.621-1.621-2.388-1.109-.853.512-.341,1.45-.938,1.706s-1.535-.682-.426-1.962a2.751,2.751,0,0,1,4.435.938c.6,1.962-.171,4.094-2.644,5.374a5.771,5.771,0,0,1-8.359-3.5c-1.706-4.947,2.218-10.832,8.7-10.406,6.4.426,11.941,9.468,4.947,16.718-7.335,7.676-16.121,3.412-19.532-1.535-3.412-5.032-3.412-12.026-2.3-15.182-1.962.341-6.653-1.109-6.653-1.109L4.1,2.594Z" transform="translate(-4.1 -2.491)" fill="#b43034"/>
            <g id="グループ_120" data-name="グループ 120" transform="translate(10.245 3.174)">
              <path id="パス_22" data-name="パス 22" d="M16.3,6.968a19.688,19.688,0,0,1,8.1,2.218l.6-.768S19.541,6.2,16.726,6.2Z" transform="translate(-16.3 -6.2)" fill="#b43034"/>
            </g>
            <g id="グループ_121" data-name="グループ 121" transform="translate(28.071 0.017)">
              <path id="パス_23" data-name="パス 23" d="M50.7,6C49.252,2.756,42.94.368,39.443,5.4c-3.924,5.629.6,10.491,5.544,11.088,4.862.768,14.5-1.962,16.035-7.762s-4.776-6.226-5.288-2.9S63.411,13.5,68.187,8.641c4.179-4.35-.682-6.312-2.132-5.374s-.171,1.876.512,1.194c1.194-1.194,3.668,1.535.6,4.009C63.5,11.285,58.89,9.75,57.44,8.044s-.853-3.241.426-3.5,4.35,3.241.085,7.25c-3.5,3.326-9.809,4.776-13.391,3.753s-5.885-3.071-5.629-6.738C39.1,6.168,41.746,3.1,44.9,3.182s4.691,1.962,4.521,3.753c-.085,1.024-.426,2.388.512,2.474C50.787,9.665,51.47,7.788,50.7,6Z" transform="translate(-37.954 -2.499)" fill="#b43034"/>
            </g>
            <path id="パス_24" data-name="パス 24" d="M37.5,5.4A10.11,10.11,0,0,0,23.082,7.273L22.4,7.1A11.192,11.192,0,0,1,30.418,2.5a11.92,11.92,0,0,1,7.762,2.3Z" transform="translate(-7.07 -2.479)" fill="#b43034"/>
            <path id="パス_25" data-name="パス 25" d="M43.735,13.352c1.791-2.985,7.932,2.3,3.582,8.188-4.435,5.885-10.832,2.132-10.918-.426-.085-2.132,1.962-1.621,1.535.171-.256,1.109,5.2,4.35,8.529.085s.938-7.079-.768-7.847C45.1,15.143,43.308,13.949,43.735,13.352Z" transform="translate(-9.308 -3.951)" fill="#b43034"/>
            <path id="パス_26" data-name="パス 26" d="M60.074,11.226a12.831,12.831,0,0,1-8.188,4.521l-.085-.512A12.678,12.678,0,0,0,59.732,10.8Z" transform="translate(-11.738 -3.703)" fill="#b43034"/>
          </g>
          <g id="グループ_125" data-name="グループ 125" transform="translate(0 0.103)">
            <path id="パス_27" data-name="パス 27" d="M4.094,2.6c.853,1.962,3.071,8.359,2.132,9.382s-1.706.256-1.621-.426.6.341.853,0,.085-1.194-.768-.682-.853,1.535.085,2.218a1.007,1.007,0,0,0,1.45,1.279c-.085-.512-.682-.426.256-1.194.938-.853,9.468-3.582,15.779,1.365C29,19.829,28.83,27.421,23.8,32.623c-4.862,5.032-14.329,3.5-15.182-4.009s6.738-9.809,9.979-7.591c5.459,3.668,1.876,9.894-2.218,9.041-.768-.171-1.621-1.621-1.109-2.388s1.45-.341,1.706-.938-.682-1.535-1.962-.426a2.8,2.8,0,0,0,.938,4.435c1.962.6,4.094-.171,5.374-2.644a5.771,5.771,0,0,0-3.5-8.359c-4.947-1.706-10.832,2.218-10.406,8.7.426,6.4,9.468,11.941,16.718,4.947,7.676-7.335,3.412-16.121-1.535-19.532-5.032-3.412-12.026-3.412-15.182-2.3C7.762,9.594,6.312,4.9,6.312,4.9L4.094,2.6Z" transform="translate(-4.057 -2.6)" fill="#b43034"/>
            <g id="グループ_123" data-name="グループ 123" transform="translate(3.108 10.321)">
              <path id="パス_28" data-name="パス 28" d="M8.553,14.7a19.688,19.688,0,0,0,2.218,8.1l-.853.682S7.7,18.026,7.7,15.212Z" transform="translate(-7.7 -14.7)" fill="#b43034"/>
            </g>
            <g id="グループ_124" data-name="グループ 124" transform="translate(0 28.79)">
              <path id="パス_29" data-name="パス 29" d="M7.591,49.1c-3.241-1.365-5.715-7.762-.6-11.259,5.629-3.924,10.491.6,11.088,5.544.768,4.862-1.962,14.5-7.762,16.035s-6.226-4.776-2.9-5.288,7.676,7.676,2.815,12.453c-4.35,4.265-6.312-.682-5.374-2.132s1.876-.171,1.194.512c-1.194,1.194,1.535,3.668,4.009.6,2.815-3.668,1.279-8.274-.426-9.724s-3.241-.853-3.5.426,3.241,4.35,7.25.085c3.326-3.5,4.776-9.809,3.753-13.391s-3.071-5.885-6.738-5.629C7.761,37.5,4.691,40.146,4.776,43.3s1.962,4.691,3.753,4.521c1.024-.085,2.388-.426,2.474.512C11.258,49.273,9.3,49.87,7.591,49.1Z" transform="translate(-4.057 -36.354)" fill="#b43034"/>
            </g>
            <path id="パス_30" data-name="パス 30" d="M7,36A10.034,10.034,0,0,1,8.873,21.582L8.7,20.9A11.192,11.192,0,0,0,4.1,28.918a11.92,11.92,0,0,0,2.3,7.762Z" transform="translate(-4.06 -5.291)" fill="#b43034"/>
            <path id="パス_31" data-name="パス 31" d="M14.852,42.135c-2.985,1.791,2.3,7.932,8.188,3.582,5.885-4.435,2.132-10.832-.341-10.918-2.132-.085-1.621,1.962.171,1.535,1.109-.256,4.35,5.2.085,8.529s-7.079.938-7.847-.768C16.728,43.5,15.449,41.794,14.852,42.135Z" transform="translate(-5.518 -7.335)" fill="#b43034"/>
            <path id="パス_32" data-name="パス 32" d="M12.826,58.474a12.831,12.831,0,0,0,4.521-8.188l-.512-.085A12.678,12.678,0,0,1,12.4,58.132Z" transform="translate(-5.284 -9.6)" fill="#b43034"/>
          </g>
        </g>
      </g>
    </g>
  </g>
</svg>
