<svg id="レイヤー_1" data-name="レイヤー 1" xmlns="http://www.w3.org/2000/svg" viewBox="0 0 392 320.12"><defs><style>.cls-1{fill:#b43034;}</style></defs><title>rougenom_logo</title><path class="cls-1" d="M317.37,203.74l24.2,26.07c0-4.6,1.05-8.25-.19-10.77-4.38-8.93-6.83-17.9-3.77-27.68,1.22-3.87,2.91-7.6,4.94-12.8,1.26,4.45,1.9,7.33,2.89,10.08,1.09,3,3,3.87,5.63,1.39,8.18-7.79,18.83-7.88,29-8.9,5.81-.58,7.73,5.68,5,13.65-2,5.73-3.46,11.64-5.3,18,7.88,1.67,13.57,6.08,18.4,12.39-22.4-3.11-41,2.36-53.65,21.06-4.54,6.73-6.39,15.35-5.69,25.63,7.27-6.67,14-8.79,22.25-7.17,5.18,1,10.72.19,16.52.19-2.62,23.27-17.41,36.74-39.74,43.45,6.9,9.17,20.58,7.41,23.58,7.41s13-3,13-5c1.22-7.63,9.88-15.25,12.94-15.62s1.33,7-3.94,14.62c5,0,10,0,16-2a88,88,0,0,1-14,5c-3,1-4.88.51-8,3-5,4-24.83,12.67-32,12-8.19-.79-16.36-3.65-24.11-6.7-11-4.35-28.87-30.72-28.87-30.28,1.29-1,12,2,12,2s1.62-10.94,3-12c4.18,4.14,7.14,19.33,15.39,21,1.46-9.37,2.81-18.48,4.32-27.56a137.73,137.73,0,0,1,2.9-14c1.15-4.15.71-7.45-2.75-10.34a39.67,39.67,0,0,1-7.29-7.24c-5.91-8.45-7-17.85-4.7-27.8C316.09,211.37,316.6,207.86,317.37,203.74Zm39.92,19.12C369,222.8,381.83,208,380,197.93c-.23-1.29-3.09-3.33-4.27-3.05-9.61,2.26-18.53,5.78-23.59,15.27-1.56,2.91-3.85,5.73-.89,8.69C353.26,220.81,356,222,357.29,222.86Zm-8.16-18.07c1.33-1.74,2.07-2.55,2.62-3.47,4-6.59,8.62-11.23,17.52-10.17,3.17.38,6.76-2.81,10.17-4.37C366.12,183.94,348.24,192.65,349.13,204.79Zm37.28,91.91c-2.35.07-5.05,2.1-7,6-1,2-3,5-2,6s4-1,6-3C384.41,304.7,388.76,296.64,386.41,296.7ZM252.53,187.22a53.72,53.72,0,0,0,7-5.95c7.17-7.71,14.42-15.38,21.15-23.47C293,143,304.32,128.14,305.92,107.39a98.64,98.64,0,0,0-5.06-40A88.61,88.61,0,0,0,281.5,35.25c-2.08-2.23-3.69-5.23-6.2-6.67-8.4-4.8-16.71-10.22-25.78-13.25C234,10.15,218.13,4.69,201.21,9.38a11.59,11.59,0,0,1-3.44.16c-10.72-.29-21.45-1-32.17-.76-6,.13-12.59.58-18,3-14.83,6.56-29.11,14.34-43.72,21.4-11.17,5.39-18.4,15-26.55,23.69S60.19,74,51.72,82.7c-3.7,3.8-7.76,7.49-10.47,12-11.68,19.25-13.83,38.5,4.38,53.51,11.64,9.59,37.15,15.66,49.72,12.6a11.06,11.06,0,0,0-1.69-.64c-21-3.55-30.67-20.21-26.6-38.19,4.52-20,17.67-34,37.21-41.36,1-.38,2.32.06,4.24.16-2.18,3.49-3.55,6.5-5.63,8.88-13,14.83-12.61,32.62-10.13,50.23,1.09,7.81,5.77,15.21,9.33,22.54,2.13,4.39,2.81,7.31-2.33,10.16-3.27,1.82-5.87,5.09-8.3,8.09-8.29,10.25-7.11,19.33,3.21,27.56.76.61,1.64,1.84,1.53,2.67-.71,5.34-.91,10.92-2.68,15.93A196.81,196.81,0,0,1,68.3,275.45c-8.6,12.09-24.81,18.19-38.13,16.16-7.34-1.12-14.46-11.77-12.5-19.21,1.78-6.71,13.81-13.47,20.71-11.41,4.07,1.22,6.19,4,3.5,7.87s-6.22,7.27-9.39,10.89c4-1.59,9.4-2.42,12.87-5.41,3.23-2.8,6.16-7.9,6.15-12,0-4.82-5-7.3-10.12-7.78-.78-.07-1.55-.13-2.33-.15-16.37-.54-23.28,3.38-29.07,16.45-.79,1.78-1.72,3.51-2.58,5.26v10.48c3.12,3.75,5.67,8.27,9.48,11.08,7.56,5.59,16.28,4.87,25.41,3.92C66.22,299.1,80.74,285,91.19,264.93,99,250,107.05,235.3,119.57,223.74c1.92-1.76,5.54-2.61,8.26-2.41,9.92.73,19.78,2.15,29.68,3.18,11.91,1.23,22.44-4.27,33.57-6.89,2.93-.69,7.3-1.17,9.15.42,9.69,8.3,21.71,14.41,26.28,27.76a35.59,35.59,0,0,1-.91,24.89c-3.52,8.72-12.76,12.3-21.95,13.89-8.21,1.43-17.35,2.38-22.53,8.83A78.53,78.53,0,0,1,160.91,311c6.24,6.84,14,10,22.58,12.7,15.86,4.94,28.62.32,40.24-10,2.06-1.82,4.15-4.32,4.8-6.87,1.92-7.54,3.2-15.24,4.59-22.91,1.22-6.75,3-13.2,6.87-17.44,20.68,9.68,40.67,18.67,63.09,24.21.5-5.53,1.63-9.47,1-13.14-1.92-12-3.53-24.24-7-35.88-5.36-18.11-18.12-30.87-33.72-40.86-3.19-2-7-3.06-10.43-4.79C248.05,193.55,248,190.66,252.53,187.22ZM187.61,308.63c10.23.09,18.08-2.9,24.42-9.5C209.45,309.73,196.82,314.9,187.61,308.63Zm62.28-90c12.5,15.43,37.52,43,39.52,50-6.13,0-19.86-14.9-29.4-28.82-5.29-7.58-9.35-15-10-19.58v0c0-.25-.07-.51-.09-.75A8.32,8.32,0,0,1,249.89,218.65ZM98,56c1-5.45,6.49-8.35,11.25-10.78,11-5.61,22.17-11.81,34-14.72,11.11-2.73,23.19-1.83,34.84-2,6.5-.08,13,.85,19.51,1.53,11.09,1.17,18.6,8.4,18.65,20.71A199.35,199.35,0,0,1,214,77.66c-.68,5.13-2.3,5.43-6,1.62C203.94,75.22,201,69,196.23,67,179.64,60,163.41,50.79,144,54.35c-6,1.09-12.29.06-18.44.27C116.52,54.94,107.49,55.51,98,56Zm88.74,68.53c1.12-1.89,4.35-4.74,4.83-4.42,2.38,1.54,5.83,4,5.8,6.13-.06,4.48-.89,9.81-3.48,13.2-4.33,5.65-10,10.38-15.68,14.81-2,1.61-5.63,1.25-8.51,1.79l-.78-2.26C178.53,146.19,180.91,134.36,186.7,124.52Zm-20,6.15C163.33,135,159,138.58,155,142.49c-2.51,2.51-5.44,2.71-7.34-.1a169.21,169.21,0,0,1-9.89-16.93c-.5-1,.59-3.7,1.71-4.41,8.31-5.25,16.5-11.53,27.3-7.06,2.08.86,3.92,2.31,6.56,3.9C170.85,122.85,169.39,127.23,166.71,130.67Zm-7.16-31.81c-14.19-2-27.91.62-41.32,6.83,2-12.9,24-28.91,38.74-29.08,23-.25,41.15,12,44.74,29.54C187.58,103.67,173.62,100.88,159.55,98.86Zm14.72,110c-13.85.41-27.7.37-41.17-3.51-3.61-1-7-2.76-10.58-3.92-6.64-2.16-8.31-4.9-6.64-11.45.37-1.46.82-2.9,1.35-4.76,21.87,1.4,41.46,9.47,60.14,21.58C176.66,207.27,175.49,208.79,174.27,208.83Zm50.14,2.87c-.74,2.66-1.21,5.47-3.12,6-3.52,1-11.11-6.13-9.79-9.24,1.14-2.69,5.17-5.3,8.27-5.79C226.29,201.63,225.15,209.05,224.41,211.7Zm5.17-34c-10.8,10-24.64,10.24-38.1,11.26a10.55,10.55,0,0,1-7-2.81c-8.82-8.18-19.63-12.57-30.85-15.48-8.6-2.23-17.73-2.34-26.55-3.82-2.16-.36-5.19-2-5.82-3.73-2.2-6.1-3.44-12.51.8-19.22,3.61,3.81,6.5,7.71,10.19,10.6,11.08,8.67,24.54,11.93,37.64,16.17a96.27,96.27,0,0,0,38.58,4.74c4.27-.38,8.61-2.37,12.47-4.46,7-3.77,13.62-8.17,21.65-13.06C239.84,166.8,235.13,172.58,229.58,177.72Zm9.75-38.86c-8.48,5-17.77,8.72-26.76,12.86-.89.41-2.19-.08-3.93-.19A74.48,74.48,0,0,0,218,116.17c.16-8.1,2.62-14.48,10.29-19.11,9.39-5.66,12.45-15.43,13-26,.1-1.81.45-3.61.76-6,10.86,4.62,14.56,13.7,17.24,23,2.84,9.81,1.23,19.34-3.11,28.85C252.19,125.68,247.63,134,239.33,138.86Zm8.78,31.26c1.28-3.66,1.89-6,2.86-8.09,4.59-10,9.45-19.93,13.88-30,2.75-6.27,5.72-12.63,7.18-19.26,3.23-14.64,4.78-29.41-5.49-42.38-4.12-5.2-7.63-12-13.09-14.8-11-5.77-15-16.17-20.71-25.62-1.63-2.68-4.21-4.78-6-7.66,11.06,2.42,22,4.86,31.23,11.61a58.61,58.61,0,0,1,22,30.44c3.76,12.16,7.09,24.56,4.26,37.74-1.84,8.54-1.77,17.51-3.71,26-3.65,16.06-13.58,28.38-25.63,39.1C253.46,168.45,251.27,168.79,248.11,170.12Z" transform="translate(-7.41 -7.6)"/></svg>